<?xml version="1.0" encoding="UTF-8"?>
<!DOCTYPE svg PUBLIC "-//W3C//DTD SVG 1.1//EN" "http://www.w3.org/Graphics/SVG/1.1/DTD/svg11.dtd">
<!-- Creator: CorelDRAW 2020 (64 Bit) -->
<svg xmlns="http://www.w3.org/2000/svg" xml:space="preserve" width="297mm" height="210mm" version="1.1" style="shape-rendering:geometricPrecision; text-rendering:geometricPrecision; image-rendering:optimizeQuality; fill-rule:evenodd; clip-rule:evenodd"
viewBox="0 0 29700 21000"
 xmlns:xlink="http://www.w3.org/1999/xlink"
 xmlns:xodm="http://www.corel.com/coreldraw/odm/2003"
 xmlns:dc="http://purl.org/dc/elements/1.1/"
 xmlns:cc="http://creativecommons.org/ns#"
 xmlns:rdf="http://www.w3.org/1999/02/22-rdf-syntax-ns#"
 xmlns:svg="http://www.w3.org/2000/svg"
 xmlns:sodipodi="http://sodipodi.sourceforge.net/DTD/sodipodi-0.dtd"
 xmlns:inkscape="http://www.inkscape.org/namespaces/inkscape"
 inkscape:version="0.92.3 (2405546, 2018-03-11)"
 sodipodi:docname="LogoFinalizadoZe3.svg"
 inkscape:export-filename="C:\Users\lucas.flores\Desktop\Personal\Projeto Desgin\LogoZe\LogoFinalizadoZe2.png"
 inkscape:export-xdpi="48"
 inkscape:export-ydpi="48">
 <defs>
  <style type="text/css">
   <![CDATA[
    .str0 {stroke:black;stroke-width:26.46;stroke-miterlimit:22.9256}
    .str2 {stroke:#8DD217;stroke-width:26.46;stroke-miterlimit:22.9256}
    .str1 {stroke:black;stroke-width:26.57;stroke-miterlimit:22.9256}
    .fil2 {fill:#0086BE;fill-rule:nonzero}
    .fil1 {fill:#1DAAE2;fill-rule:nonzero}
    .fil0 {fill:#8DD217;fill-rule:nonzero}
    .fil4 {fill:white;fill-rule:nonzero}
    .fil3 {fill:#8DD217;fill-rule:nonzero;fill-opacity:0.988235}
   ]]>
  </style>
 </defs>
 <g id="Camada_x0020_1">
  <metadata id="CorelCorpID_0Corel-Layer"/>
  <sodipodi:namedview id="base" pagecolor="#ffffff" bordercolor="#666666" borderopacity="1.0" inkscape:pageopacity="0.0" inkscape:pageshadow="2" inkscape:zoom="2.0000001" inkscape:cx="426.8453" inkscape:cy="611.13552" inkscape:document-units="mm" inkscape:current-layer="layer1" showgrid="false" inkscape:window-width="1366" inkscape:window-height="705" inkscape:window-x="-8" inkscape:window-y="-8" inkscape:window-maximized="1"/>
  <g id="layer2" inkscape:groupmode="layer" inkscape:label="Camada 2">
   <g id="layer1-7" inkscape:label="Camada 1">
    <path id="path843" class="fil0" d="M2979.04 13669.69l-103.07 1170.7c1071.75,-122.22 1352.7,-1222.06 0,0 312.55,-92.13 3667.12,-596.4 3772.58,-841.28l-253.99 -634.22c-428.01,44.88 -2141.54,136.57 -3415.52,304.8z" sodipodi:nodetypes="cccccc" inkscape:connector-curvature="0"/>
    <path id="path845" class="fil1" d="M3178.32 11956.71l-130.55 1196.05 3387.76 -380.09c0,0 487.9,-329.42 508.51,-369.98 20.61,-40.55 192.41,-1033.86 192.41,-1033.86 -1498.05,329.42 -764.11,180.09 -1498.05,329.42l-2460.08 258.46z" sodipodi:nodetypes="ccccccc" inkscape:connector-curvature="0"/>
    <path id="path847" class="fil2" d="M3366.72 10252.7l-119.67 1146.55c1107.68,-19.2 2960.92,-351.17 3209.09,-435.85 576.43,-162.91 691.2,-461.58 865.83,-719.65l41.21 -506.79c-41.55,-323.05 -324.38,-576.88 -694.05,-805.8 -168.95,-159.94 -672.14,-214.24 -1078.87,-299l-3057.93 -96.29c-179.33,-127.79 -72.66,-150.11 -48.09,-202.72 2663.44,-291.69 5996.55,-110.14 9008.46,-607.48 182.96,-76.46 291.22,-189.62 364.57,-319.98 123.99,-258.31 82.47,-608.15 123.69,-912.22 -441.36,87.45 -809.37,192.93 -1401.84,243.27 -2452.77,368.64 -5053.02,-105.32 -8871.34,392.02 -558.29,166.85 -1165.08,392.17 -1285.08,743.2 -7.45,582.55 609.4,691.36 1099.49,821 1251.03,194.68 2562.13,143.52 3751.97,293.94 287.43,81.24 536.93,185.82 714.66,334.49 94.07,436.48 -240.69,525.07 -494.77,679.12 -698.07,239.42 -1389.57,218.5 -2127.39,252.22l0.06 -0.03z" sodipodi:nodetypes="cccccccccccccccccccc" inkscape:connector-curvature="0"/>
    <path id="path849" class="fil1" d="M7363.21 9749.62c1383.04,40.58 3100.31,-135.87 3799.13,-255.35 82.27,12.38 486.98,-248.84 466.45,-349.53 19.45,6.62 165.21,-886.24 165.21,-910.23 -351.11,88.2 -821.61,171.8 -1263.36,200.69 -1627.94,149.01 -3293.55,131.31 -4940.35,196.93l0 0c399.64,79.97 835.85,142.02 1078.87,299.01 389.04,239.58 687.32,498.31 694.05,818.48z" sodipodi:nodetypes="ccccccccc" inkscape:connector-curvature="0"/>
    <path id="path851" class="fil3" d="M7321.99 10243.75l-178.09 1226.77c1319.88,-74.18 2870.39,-155.21 3848.38,-304.6 193.74,-125.57 338.17,-148.09 451.89,-437.2 56.95,-216.21 54.73,-533.08 97.17,-802.73l-1107.85 186.35c-1037.16,51.05 -2074.31,124.04 -3111.5,131.41z" sodipodi:nodetypes="ccccccc" inkscape:connector-curvature="0"/>
   </g>
  </g>
  <flowRoot xml:space="preserve" id="flowRoot815" style="fill:black;fill-opacity:1;stroke:none;font-family:sans-serif;font-style:normal;font-weight:normal;font-size:10.66666667px;line-height:1.25;letter-spacing:0px;word-spacing:0px">
   <flowRegion id="flowRegion817">
    <rect id="rect819" width="502.85715" height="254.28572" x="171.42857" y="271.09113"/>
   </flowRegion>
   <flowPara id="flowPara821"/>
  </flowRoot>
  <flowRoot sodipodi:role="line" xml:space="preserve" id="flowRoot827" style="fill:black;fill-opacity:1;stroke:none;font-family:sans-serif;font-style:normal;font-weight:normal;font-size:10.66666667px;line-height:1.25;letter-spacing:0px;word-spacing:0px">
   <flowRegion id="flowRegion829">
    <rect id="rect831" width="351.42856" height="234.28572" x="340" y="376.80539"/>
   </flowRegion>
   <flowPara id="flowPara833"/>
  </flowRoot>
  <flowRoot sodipodi:role="line" xml:space="preserve" id="flowRoot839" style="fill:black;fill-opacity:1;stroke:none;font-family:sans-serif;font-style:normal;font-weight:normal;font-size:10.66666667px;line-height:1.25;letter-spacing:0px;word-spacing:0px">
   <flowRegion id="flowRegion841">
    <rect id="rect843" width="19.697975" height="21.213203" x="560.12958" y="481.57788"/>
   </flowRegion>
   <flowPara id="flowPara845"/>
  </flowRoot>
  <flowRoot xml:space="preserve" id="flowRoot847" style="fill:black;fill-opacity:1;stroke:none;font-family:sans-serif;font-style:normal;font-weight:normal;font-size:10.66666667px;line-height:1.25;letter-spacing:0px;word-spacing:0px">
   <flowRegion id="flowRegion849">
    <rect id="rect851" width="142.4315" height="58.083771" x="519.21838" y="457.83932"/>
   </flowRegion>
   <flowPara id="flowPara853"/>
  </flowRoot>
  <flowRoot xml:space="preserve" id="flowRoot855" style="fill:black;fill-opacity:1;stroke:none;font-family:sans-serif;font-style:normal;font-weight:normal;font-size:10.66666667px;line-height:1.25;letter-spacing:0px;word-spacing:0px">
   <flowRegion id="flowRegion857">
    <rect id="rect859" width="7.5761442" height="14.142136" x="572.75647" y="468.44592"/>
   </flowRegion>
   <flowPara id="flowPara861"/>
  </flowRoot>
  <path id="path900" class="fil4 str0" d="M5660.2 8589.61l-13.1 536.6c530.45,34.21 1025.22,0.05 1537.83,0l35.98 45.54 -1591.79 1906.44 9.26 620.06 2591.27 9.26 0 -638.57 -1527 27.76 -46.26 -55.54 1536.25 -1850.91 -18.51 -629.31 -2517.25 -9.25 3.32 37.92z" inkscape:connector-curvature="0" sodipodi:nodetypes="cccccccccccccc"/>
  <path id="path902" class="fil4 str0" d="M8847.1 9329.09c-234.26,108.01 -380.75,267.23 -405.73,497.34l-13.11 1413.51c77.9,224.71 158.51,447.12 458.07,484.27l1779.96 -39.28 -6.54 -562.78 -1334.97 39.26c-115.48,57.75 -171.88,-326.32 -91.6,-353.39 24.79,-8.36 1544.36,6.54 1544.36,6.54l0 -1079.76c-86.57,-274.21 -263.24,-376.26 -471.17,-425.35 -486.43,-29.34 -972.86,-76.51 -1459.29,19.64l0.02 0zm422.94 890.44l716.58 8.82 12.24 -277.62 -38.7 -81.78 -33.07 -24.25 -19.84 -13.23 -57.33 -8.82 -105.83 -8.82 -154.35 -2.21 -127.88 4.41 -83.78 -8.82 -35.28 2.21 -41.89 33.07 -19.85 55.12 -28.19 79.32 17.17 112.51 0 130.09z" inkscape:connector-curvature="0" sodipodi:nodetypes="cccccccscccc"/>
  <polygon id="path904" class="fil4 str0" points="9560.41,8373.68 9279.02,9080.42 9848.33,9073.88 10286.79,8367.14 " inkscape:connector-curvature="0"/>
  <path id="path906" class="fil4 str0" d="M12518.28 8550.36l-26.18 3154.18 824.55 0 0 -942.33 1334.97 13.1c275.41,-106.68 532.64,-243.66 602.06,-693.66l13.1 -824.56c-58.48,-420.14 -278.23,-668.23 -706.77,-693.66l-2041.73 -13.07z" inkscape:connector-curvature="0" sodipodi:nodetypes="ccccccccc"/>
  <path id="path908" class="fil4 str0" d="M13290.47 9178.59l0 916.16 13.11 78.53 968.51 13.08c117.34,-94.38 164.57,-165.38 209.42,-235.57l0 -615.14c-2.85,-52.82 -235.6,-170.14 -235.6,-170.14l-955.44 13.08z" inkscape:connector-curvature="0" sodipodi:nodetypes="cccccccc"/>
  <path id="path910" class="fil4 str0" d="M15711.74 9335.63l0 549.7 1269.54 -52.36c68.04,25.76 135.05,54.77 117.79,353.39l-1191.01 39.25c-223.41,110.22 -458.81,199.06 -444.99,732.91 26.34,287.87 40.03,580.81 405.74,732.92 248.67,63.27 497.34,34.1 746.02,13.07 200.75,-34.79 387.92,-96.67 536.59,-235.59l0 235.59 746.02 -13.07 -26.17 -2015.53c-180.67,-379.09 -378.15,-388.87 -575.88,-392.64l-1583.65 52.36z" inkscape:connector-curvature="0" sodipodi:nodetypes="cccccccccccccc"/>
  <path id="path912" class="fil4 str0" d="M16366.15 10788.38c-57.09,104.71 -147.53,209.42 13.08,314.11 257.29,-17.48 532.52,-31.36 706.74,-65.43l-13.11 -274.85c-178.97,-25.24 -373.82,-29.17 -638.01,-3.27l-68.7 29.44z" inkscape:connector-curvature="0" sodipodi:nodetypes="cccccc"/>
  <path id="path914" class="fil4 str0" d="M18237.72 9309.45l0 2395.09 811.45 -13.07 -13.07 -1583.65c300.3,-233.93 632.11,-153.07 955.41,-157.06l-13.08 -706.74c-344.65,3.1 -689.28,69.5 -1033.94,366.46l-13.1 -327.21 -693.67 26.18z" inkscape:connector-curvature="0" sodipodi:nodetypes="ccccccccc"/>
  <path id="path916" class="fil4 str0" d="M20408.71 9356.85l0 509 1332.68 -27.75 46.26 351.66c-413.39,18.06 -826.74,-81.02 -1240.13,55.54 -285.34,153.88 -442.38,376.88 -407.2,703.36 32.82,389.29 118.92,664.47 323.91,684.83 692.3,311.66 987.79,12.85 1378.93,-138.81l27.76 240.61 721.86 -9.25 -27.76 -2026.75c-103.85,-215.1 -248.53,-382.56 -499.75,-425.71l-1656.56 83.27zm1378.94 1406.69l4.62 268.39c-222.71,38.26 -447.81,75.32 -721.86,87.92 -51.33,-20.33 -107.17,-27.03 -124.93,-148.06 4.04,-75.32 -14.27,-157.01 106.43,-198.97l735.74 -9.28z" inkscape:connector-curvature="0" sodipodi:nodetypes="ccccccccccccc"/>
  <polygon id="path918" class="fil4 str0" points="22768.63,9384.6 22796.38,10013.92 23129.54,10023.17 23138.8,11689 23916.17,11679.75 23906.92,9421.64 " inkscape:connector-curvature="0"/>
  <polygon id="path920" class="fil4 str1" points="23554.81,8278.16 23065.28,8869.2 23669.74,8863.54 24379.45,8287.58 " inkscape:connector-curvature="0" sodipodi:nodetypes="ccccc"/>
  <path id="path922" class="fil4 str0" d="M24323.41 8551.69l-18.51 3165.07 1877.22 -51.47c149.23,20.25 540.76,-274.49 523.53,-549.7 -4.1,-65.32 -13.11,-1387.33 -13.11,-1387.33 -66.7,-340.58 -301.69,-428.7 -575.87,-458.06 -319.56,7.64 -629.21,-14.52 -981.59,91.6l-13.08 -837.62 -798.59 27.51zm785.49 1333.64l0 1191.01 798.37 -26.18 0 -1164.83 -798.37 0z" inkscape:connector-curvature="0" sodipodi:nodetypes="cccsccccc"/>
  <path id="path926" class="fil4 str0" d="M27150.61 9348.73l13.1 575.88 1282.62 -52.36c73.88,52.63 129.36,123.66 65.43,314.11l-1204.09 39.25c-256.01,146.81 -423.91,364.13 -418.81,719.84 0.14,336.37 62.94,621.81 340.28,732.91 524.63,214.16 943.97,37.21 1348.08,-196.31l52.35 261.74c239.95,-26.17 543.33,-15.92 706.74,-32.71l-26.18 -2022.1c-204.07,-381.91 -388.51,-370.8 -575.88,-418.81l-1583.64 78.56zm1406.74 1419.43l-4.62 273.02c-231.58,39.89 -478.12,64.82 -758.87,55.54 -81.94,12.08 -86.96,-78.42 -97.18,-161.96 -2.22,-75.07 48.67,-123.74 120.31,-161.97l740.36 -4.63z" inkscape:connector-curvature="0" sodipodi:nodetypes="ccccccccccccc"/>
  <path id="path928" class="fil4 str0" d="M9252.84 9976.93l0 261.75 752.56 6.54 -6.54 -294.49c-13.07,-64.41 -19.25,-136.71 -124.32,-150.5l-536.6 -13.08c-41.91,26.93 -75.18,20.28 -85.07,189.78l-0.03 0z" inkscape:connector-curvature="0" sodipodi:nodetypes="ccccccc"/>
  <flowRoot xml:space="preserve" id="flowRoot963" style="font-style:normal;font-weight:normal;font-size:10.66666698px;line-height:1.25;font-family:sans-serif;letter-spacing:0px;word-spacing:0px;fill:#000000;fill-opacity:1;stroke:none" transform="matrix(0.32027898,0,0,0.33326291,-9.2765306,-35.070466)">
   <flowRegion id="flowRegion965">
    <rect id="rect967" width="193.80234" height="18.254301" x="269.05481" y="517.83679"/>
   </flowRegion>
   <flowPara id="flowPara969" style="opacity:1;fill:#0086be;fill-opacity:1;stroke:#0086be;stroke-opacity:1">
    VEREADOR  / TERENOS-MS   </flowPara>
  </flowRoot>
  <path id="path882" class="fil0 str2" d="M5948.88 14188.75c2351.85,-419.98 10634.15,-1597.99 21765.42,-182.72l0 0c-6730.23,-1137.57 -13798.31,-1331.26 -21399.49,-607.54l-365.93 790.26z" inkscape:connector-curvature="0" sodipodi:nodetypes="ccccc"/>
 </g>
</svg>
